<?xml version="1.0"?>
<svg xmlns="http://www.w3.org/2000/svg" xmlns:xlink="http://www.w3.org/1999/xlink" version="1.1" viewBox="0 0 252 252" width="96px" height="96px"><g fill="none" fill-rule="nonzero" stroke="none" stroke-width="1" stroke-linecap="butt" stroke-linejoin="miter" stroke-miterlimit="10" stroke-dasharray="" stroke-dashoffset="0" font-family="none" font-weight="none" font-size="none" text-anchor="none" style="mix-blend-mode: normal"><path d="M0,252v-252h252v252z" fill="none"/><g id="Layer_1"><g id="surface1"><g><path d="M175.875,90.825c0,0 15.225,-16.8 15.225,-39.9c0,-23.1 -5.25,-29.925 -5.25,-29.925l-37.8,43.05z" fill="#ffffff"/><path d="M175.875,96.075c-1.575,0 -2.625,-0.525 -3.675,-1.575l-27.825,-26.775c-2.1,-2.1 -2.1,-5.25 -0.525,-7.35l37.8,-43.05c1.05,-1.05 2.625,-2.1 4.2,-1.575c1.575,0 3.15,1.05 4.2,2.1c1.05,1.575 5.775,9.45 5.775,33.075c0,25.2 -15.75,43.05 -16.275,43.575c-0.525,1.05 -2.1,1.575 -3.675,1.575zM155.4,63.525l19.95,19.425c4.2,-6.3 10.5,-17.85 10.5,-32.025c0,-8.925 -1.05,-15.75 -1.575,-19.95z" fill="#000000"/></g><g><path d="M106.05,55.65c0,0 -14.175,-27.3 -25.2,-39.9c-9.975,19.95 -9.975,39.9 -9.975,39.9l1.575,15.225l5.775,9.975z" fill="#ffffff"/><path d="M78.75,86.1h-0.525c-1.575,0 -3.15,-1.05 -3.675,-2.625l-6.3,-9.975c-0.525,-0.525 -0.525,-1.575 -0.525,-2.1l-1.575,-15.225v-0.525c0,-1.05 0,-22.05 10.5,-42.525c0.525,-1.575 2.1,-2.625 3.675,-2.625c1.575,0 3.675,0.525 4.725,2.1c11.025,13.125 25.2,39.9 25.725,40.95c1.05,2.1 0.525,4.725 -1.05,6.3l-27.3,24.675c-1.05,1.05 -2.625,1.575 -3.675,1.575zM77.7,69.3l2.1,3.15l19.425,-17.85c-3.15,-6.3 -10.5,-18.9 -17.325,-28.875c-5.775,14.7 -5.775,27.825 -5.775,29.4z" fill="#000000"/></g><g><path d="M185.85,80.85c9.975,6.825 27.825,15.75 29.925,29.925c1.05,8.925 -9.975,9.975 -9.975,9.975c11.025,7.875 23.1,23.1 18.9,35.175c-2.625,7.35 -8.925,9.975 -8.925,9.975c0,0 10.5,35.175 -5.25,39.9c-5.775,1.575 -10.5,-4.2 -10.5,-4.2c0,0 -21.525,34.65 -74.025,34.65c-36.75,0 -52.5,-15.75 -63,-31.5c-3.15,8.925 -10.5,10.5 -15.75,5.25c-1.575,-1.575 -5.25,-7.875 -5.25,-21c0,-9.45 0.525,-18.9 0.525,-23.625c0,0 -7.875,3.15 -12.6,-1.05c-13.65,-13.125 16.275,-38.325 16.275,-38.325c0,0 -7.35,1.575 -9.975,-5.25c-4.2,-11.55 18.9,-21 18.9,-21c0,0 -17.85,1.575 -18.9,-8.925c-1.575,-17.85 59.85,-19.95 59.85,-19.95c-9.45,-5.775 -9.975,-9.975 -9.975,-9.975c0,0 -0.525,-5.25 9.975,-5.25c17.85,0 35.7,8.925 35.7,8.925c0,0 -6.825,-13.125 4.2,-15.75c4.725,-1.05 9.975,1.575 15.75,8.4c12.075,14.7 24.675,16.8 34.125,23.625z" fill="#59aec3"/><path d="M126,241.5c-34.125,0 -51.45,-13.125 -62.475,-27.3c-2.1,2.1 -4.2,3.15 -6.825,3.675c-4.725,1.05 -9.45,-0.525 -13.125,-4.2c-1.575,-1.575 -6.825,-7.875 -6.825,-24.675c0,-5.25 0,-11.025 0.525,-17.325c-3.675,0 -7.875,-1.05 -11.025,-3.675c-3.675,-3.675 -5.25,-7.875 -5.25,-12.6c0.525,-9.975 8.4,-19.95 14.7,-26.775c-1.575,-1.05 -3.15,-3.15 -4.2,-5.775c-3.15,-8.4 2.1,-15.225 8.4,-19.95c-4.725,-2.1 -8.4,-5.25 -8.925,-11.025c-0.525,-3.675 1.05,-7.35 3.675,-9.975c8.4,-9.45 33.075,-13.65 48.825,-14.7c-1.575,-2.1 -2.1,-4.2 -2.1,-4.725v-0.525c0,-1.05 0,-3.675 2.625,-6.3c2.625,-2.625 6.825,-4.2 12.6,-4.2c10.5,0 21,3.15 28.35,5.775c0,-1.575 0.525,-3.675 1.05,-5.25c1.05,-2.625 3.675,-5.775 8.925,-6.825c4.2,-1.05 12.075,-1.05 21,10.5c6.825,8.4 14.175,12.075 21.525,15.75c3.675,2.1 7.875,3.675 11.55,6.825c1.575,1.575 4.2,2.625 6.3,4.2c9.975,6.3 23.625,15.225 25.725,29.4c0.525,3.675 -0.525,6.825 -2.625,9.45c-1.05,1.05 -1.575,2.1 -2.625,2.625c9.45,9.45 18.375,23.1 14.175,35.175c-1.575,4.725 -4.725,8.4 -7.875,10.5c2.625,10.5 7.35,37.275 -9.45,42.525c-4.2,1.575 -8.4,0 -11.025,-1.575c-8.925,8.925 -32.55,30.975 -75.6,30.975zM61.425,193.2l5.775,8.925c10.5,14.7 24.675,28.875 58.8,28.875c48.825,0 68.775,-30.45 69.825,-32.025l4.2,-6.3l4.725,5.775c0.525,0.525 3.15,3.15 4.725,2.625c7.875,-2.625 4.2,-24.15 1.575,-33.6l-1.575,-4.725l4.725,-1.575c0,0 4.2,-2.1 5.775,-6.825c2.625,-8.4 -6.825,-22.05 -17.325,-29.4l-11.025,-7.875l13.125,-1.575c1.575,0 4.2,-1.05 5.25,-2.1c0,-0.525 0.525,-0.525 0.525,-1.575c-1.05,-9.45 -12.075,-16.275 -21,-22.05c-2.625,-1.575 -4.725,-3.15 -6.825,-4.725v0c-3.15,-2.1 -6.3,-3.675 -9.975,-5.775c-7.875,-3.675 -16.275,-8.4 -24.675,-18.375c-4.2,-4.725 -7.875,-7.35 -10.5,-6.825c-1.575,0.525 -2.1,1.05 -2.1,1.05c-1.05,1.575 0.525,5.25 1.05,7.35l7.35,14.7l-14.175,-7.35c0,0 -16.275,-8.4 -33.075,-8.4c-1.575,0 -2.625,0 -3.675,0.525c1.05,1.05 3.15,3.15 6.3,5.25l14.7,8.925l-17.325,0.525c-17.325,0.525 -47.25,4.2 -54.075,12.075c-1.05,1.05 -1.05,1.575 -1.05,2.1c0.525,3.675 8.925,4.2 13.65,4.2l30.975,-2.1l-28.875,12.075c-7.875,3.15 -17.85,10.5 -16.275,14.7c1.05,1.575 4.2,1.05 4.2,1.05l19.95,-3.675l-15.225,13.125c-6.825,5.775 -17.85,17.85 -17.85,25.725c0,2.1 0.525,3.675 2.1,4.725c1.575,1.575 6.3,0.525 6.825,0l7.35,-3.15l-0.525,8.4c-0.525,8.4 -0.525,16.275 -0.525,23.1c0,11.025 2.625,16.275 3.675,17.325c0.525,0.525 2.1,1.575 3.675,1.575c1.575,-0.525 2.625,-2.1 3.675,-4.725z" fill="#000000"/></g><g fill="#ffffff"><path d="M84,141.225c0,-13.65 6.3,-28.35 18.375,-35.7c13.125,-7.875 28.875,-6.825 44.625,-3.15c13.125,5.25 23.1,17.325 25.725,30.975c2.625,13.65 -3.15,28.875 -14.175,37.275c-10.5,7.35 -22.05,7.875 -36.75,7.35c-11.025,-1.05 -23.1,-4.725 -29.925,-13.65c-4.725,-5.775 -6.825,-12.6 -7.35,-19.95c-0.525,-0.525 -0.525,-1.575 -0.525,-3.15z"/><path d="M129.15,183.75c-2.625,0 -5.25,0 -7.875,0c-15.75,-1.575 -27.3,-6.825 -34.125,-15.225c-4.725,-5.775 -7.875,-13.65 -8.4,-22.575c0,-1.575 0,-2.625 0,-4.2v0c0,-16.8 7.875,-32.025 20.475,-39.9c16.275,-9.975 35.7,-6.825 48.825,-3.675l1.05,0.525c14.7,6.3 25.725,19.95 28.875,35.175c3.15,16.275 -3.675,33.075 -16.275,42.525c-9.975,5.775 -20.475,7.35 -32.55,7.35zM125.475,105c-7.875,0 -14.7,1.575 -20.475,5.25c-9.45,5.775 -15.75,17.85 -15.75,30.975v0c0,1.05 0,2.1 0,3.15c0.525,4.725 1.575,11.55 6.3,16.8c5.25,6.3 14.175,9.975 26.775,11.55c13.65,0.525 24.15,0.525 33.075,-6.3c9.45,-6.825 14.7,-19.95 12.075,-32.025c-2.1,-11.55 -11.025,-22.05 -22.05,-27.3c-7.35,-1.05 -14.175,-2.1 -19.95,-2.1z"/></g><path d="M128.625,110.25c-3.675,0 -7.35,1.575 -10.5,4.725c1.575,2.1 2.625,5.25 2.625,8.4c0,7.35 -4.725,13.125 -10.5,13.125c0,14.7 8.4,26.25 18.375,26.25c9.975,0 18.375,-11.55 18.375,-26.25c0,-14.7 -8.4,-26.25 -18.375,-26.25z" fill="#000000"/><path d="M105,204.75c2.1,7.35 5.775,15.75 13.125,15.75c8.4,0 12.075,-9.45 13.125,-15.75z" fill="#ffffff"/><path d="M194.25,162.75c0,0 -29.4,33.075 -64.575,36.225c-3.15,0.525 -6.825,0.525 -9.975,0.525c-27.3,0 -40.95,-11.025 -40.95,-11.025c4.2,12.6 22.05,21.525 42.525,21.525c11.55,0 23.625,-2.625 34.65,-8.925c28.35,-15.75 38.325,-38.325 38.325,-38.325z" fill="#000000"/></g></g></g></svg>
